<svg width="34" height="10" viewBox="0 0 34 10" fill="none" xmlns="http://www.w3.org/2000/svg">
<path fill-rule="evenodd" clip-rule="evenodd" d="M6.79841 6.14612L7.39847 5.4881C12.9401 -0.58883 22.5708 -0.377382 27.8404 5.93692C29.3949 7.79966 31.4001 9.18882 33.63 9.99792H1C3.19745 9.2174 5.19475 7.90468 6.79841 6.14612Z" fill="#494E9D"/>
<path d="M7.39847 5.4881L7.02902 5.15119H7.02902L7.39847 5.4881ZM6.79841 6.14612L7.16786 6.48303V6.48303L6.79841 6.14612ZM27.8404 5.93692L28.2243 5.61655L27.8404 5.93692ZM33.63 9.99792V10.4979L33.8005 9.52791L33.63 9.99792ZM1 9.99792L0.832646 9.52676L1 10.4979V9.99792ZM7.02902 5.15119L6.42896 5.80921L7.16786 6.48303L7.76792 5.82501L7.02902 5.15119ZM28.2243 5.61655C22.7605 -0.930446 12.7749 -1.14969 7.02902 5.15119L7.76792 5.82501C13.1054 -0.0279741 22.3811 0.175682 27.4565 6.25729L28.2243 5.61655ZM33.8005 9.52791C31.6527 8.7486 29.7215 7.41063 28.2243 5.61655L27.4565 6.25729C29.0683 8.18869 31.1474 9.62905 33.4594 10.4679L33.8005 9.52791ZM1 10.4979H33.63V9.49792H1V10.4979ZM6.42896 5.80921C4.8812 7.50647 2.95355 8.77343 0.832646 9.52676L1.16735 10.4691C3.44135 9.66137 5.50829 8.30289 7.16786 6.48303L6.42896 5.80921Z" fill="url(#paint0_linear_4153_23024)"/>
<defs>
<linearGradient id="paint0_linear_4153_23024" x1="21.3105" y1="1.0103" x2="21.3105" y2="6.76273" gradientUnits="userSpaceOnUse">
<stop stop-color="white"/>
<stop offset="1" stop-color="white" stop-opacity="0"/>
</linearGradient>
</defs>
</svg>
